<?xml version="1.0" encoding="UTF-8" standalone="no"?>
<svg
   xmlns:dc="http://purl.org/dc/elements/1.1/"
   xmlns:cc="http://creativecommons.org/ns#"
   xmlns:rdf="http://www.w3.org/1999/02/22-rdf-syntax-ns#"
   xmlns:svg="http://www.w3.org/2000/svg"
   xmlns="http://www.w3.org/2000/svg"
   version="1.1"
   id="svg2"
   height="297mm"
   width="210mm">
  
    <path
       id="path62"
       style="fill:none;stroke:#000000;stroke-linecap:round"
       d="M 500.78443,662.59843 A 265.74803,265.74803 0 0 0 30.711629,662.59843" />
    <path
       id="path64"
       style="fill:none;stroke:#000000;stroke-linecap:round"
       d="M 30.711629,910.62992 A 265.74803,265.74803 0 0 0 500.78443,910.62992" />
    <path
       id="path66"
       style="fill:none;stroke:#000000;stroke-linecap:round"
       d="M 30.711629,910.62992 53.149606,910.62992" />
    <path
       id="path68"
       style="fill:none;stroke:#000000;stroke-linecap:round"
       d="M 53.149606,910.62992 53.149606,662.59843" />
    <path
       id="path70"
       style="fill:none;stroke:#000000;stroke-linecap:round"
       d="M 53.149606,662.59843 30.711629,662.59843" />
    <path
       id="path72"
       style="fill:none;stroke:#000000;stroke-linecap:round"
       d="M 478.34646,910.62992 500.78443,910.62992" />
    <path
       id="path74"
       style="fill:none;stroke:#000000;stroke-linecap:round"
       d="M 500.78443,662.59843 478.34646,662.59843" />
    <path
       id="path76"
       style="fill:none;stroke:#000000;stroke-linecap:round"
       d="M 478.34646,662.59843 478.34646,910.62992" />
    <path
       id="path3492"
       style="fill:none;stroke:#0000ff;stroke-linecap:round"
       d="M 179.29134,758.26773 A 5.6692915,5.6692915 0 1 0 167.95276,758.26773 5.6692915,5.6692915 0 0 0 179.29134,758.26773 Z" />
    <path
       id="path3494"
       style="fill:none;stroke:#0000ff;stroke-linecap:round"
       d="M 260.78741,758.26773 A 5.669295,5.669295 0 1 0 249.44882,758.26773 5.669295,5.669295 0 0 0 260.78741,758.26773 Z" />
    <path
       id="path3468"
       style="fill:none;stroke:#0000ff;stroke-linecap:round"
       d="M 294.09449,620.07875 A 7.086615,7.086615 0 1 0 279.92126,620.07875 7.086615,7.086615 0 0 0 294.09449,620.07875 Z" />
    <path
       id="path3470"
       style="fill:none;stroke:#0000ff;stroke-linecap:round"
       d="M 379.13386,620.07875 A 7.086615,7.086615 0 1 0 364.96063,620.07875 7.086615,7.086615 0 0 0 379.13386,620.07875 Z" />
    <path
       id="path3472"
       style="fill:none;stroke:#0000ff;stroke-linecap:round"
       d="M 294.09449,953.14958 A 7.086615,7.086615 0 1 0 279.92126,953.14958 7.086615,7.086615 0 0 0 294.09449,953.14958 Z" />
    <path
       id="path3474"
       style="fill:none;stroke:#0000ff;stroke-linecap:round"
       d="M 379.13386,953.14958 A 7.086615,7.086615 0 1 0 364.96063,953.14958 7.086615,7.086615 0 0 0 379.13386,953.14958 Z" />
    <path
       id="path3484"
       style="fill:none;stroke:#ff0000;stroke-linecap:round"
       d="M 290.55118,956.69288 368.50394,956.69288 368.50394,669.68505 290.55118,669.68505 290.55118,956.69288 Z" />
    <path
       id="path82"
       style="fill:none;stroke:#000000;stroke-linecap:round"
       d="M 122.59843,602.36221 A 5.669295,5.669295 0 1 0 111.25984,602.36221 5.669295,5.669295 0 1 0 122.59843,602.36221 Z" />
    <path
       id="path84"
       style="fill:none;stroke:#000000;stroke-linecap:round"
       d="M 420.23622,602.36221 A 5.669291,5.669291 0 1 0 408.89764,602.36221 5.669291,5.669291 0 1 0 420.23622,602.36221 Z" />
    <path
       id="path86"
       style="fill:none;stroke:#000000;stroke-linecap:round"
       d="M 147.40157,981.49606 A 5.6692915,5.6692915 0 1 0 136.06299,981.49606 5.6692915,5.6692915 0 1 0 147.40157,981.49606 Z" />
    <path
       id="path88"
       style="fill:none;stroke:#000000;stroke-linecap:round"
       d="M 395.43307,981.49606 A 5.6692915,5.6692915 0 1 0 384.09449,981.49606 5.6692915,5.6692915 0 1 0 395.43307,981.49606 Z" />
    <path
       id="path3498"
       style="fill:none;stroke:#0000ff;stroke-linecap:round"
       d="M 180.17718,897.16539 209.58662,897.16539 209.58662,849.68499 180.17718,849.68499 180.17718,897.16539 Z" />
    <path
       id="path3502"
       style="fill:none;stroke:#0000ff;stroke-linecap:round"
       d="M 200.55119,814.25197 A 5.669291,5.669291 0 1 0 189.21261,814.25197 5.669291,5.669291 0 0 0 200.55119,814.25197 Z" />
    <path
       id="path3504"
       style="fill:none;stroke:#0000ff;stroke-linecap:round"
       d="M 200.55119,932.59839 A 5.669291,5.669291 0 1 0 189.21261,932.59839 5.669291,5.669291 0 0 0 200.55119,932.59839 Z" />
  
    <path
       id="path94"
       style="fill:none;stroke:#0000ff;stroke-linecap:round"
       d="M 273.18898,556.29921 A 7.440945,7.440945 0 1 0 258.30709,556.29921 7.440945,7.440945 0 1 0 273.18898,556.29921 Z" />
    <path
       id="path96"
       style="fill:none;stroke:#0000ff;stroke-linecap:round"
       d="M 273.18898,1016.9291 A 7.440945,7.440945 0 1 0 258.30709,1016.9291 7.440945,7.440945 0 1 0 273.18898,1016.9291 Z" />
    <path
       id="path98"
       style="fill:none;stroke:#0000ff;stroke-linecap:round"
       d="M 86.811024,737.00787 A 5.314961,5.314961 0 1 0 76.181102,737.00787 5.314961,5.314961 0 1 0 86.811024,737.00787 Z" />
    <path
       id="path100"
       style="fill:none;stroke:#0000ff;stroke-linecap:round"
       d="M 86.811024,836.22047 A 5.314961,5.314961 0 1 0 76.181102,836.22047 5.314961,5.314961 0 1 0 86.811024,836.22047 Z" />
    <path
       id="path102"
       style="fill:none;stroke:#0000ff;stroke-linecap:round"
       d="M 455.31496,836.22047 A 5.314961,5.314961 0 1 0 444.68504,836.22047 5.314961,5.314961 0 1 0 455.31496,836.22047 Z" />
    <path
       id="path104"
       style="fill:none;stroke:#0000ff;stroke-linecap:round"
       d="M 455.31496,737.00787 A 5.314961,5.314961 0 1 0 444.68504,737.00787 5.314961,5.314961 0 1 0 455.31496,737.00787 Z" />
 
    <path
       id="path126"
       style="fill:none;stroke:#ff0000;stroke-linecap:round"
       d="M 253.70079,556.29921 A 5.669295,5.669295 0 1 0 242.3622,556.29921 5.669295,5.669295 0 1 0 253.70079,556.29921 Z" />
    <path
       id="path128"
       style="fill:none;stroke:#ff0000;stroke-linecap:round"
       d="M 289.13386,556.29921 A 5.669291,5.669291 0 1 0 277.79528,556.29921 5.669291,5.669291 0 1 0 289.13386,556.29921 Z" />
    <path
       id="path130"
       style="fill:none;stroke:#ff0000;stroke-linecap:round"
       d="M 253.70079,1016.9291 A 5.669295,5.669295 0 1 0 242.3622,1016.9291 5.669295,5.669295 0 1 0 253.70079,1016.9291 Z" />
    <path
       id="path132"
       style="fill:none;stroke:#ff0000;stroke-linecap:round"
       d="M 289.13386,1016.9291 A 5.669291,5.669291 0 1 0 277.79528,1016.9291 5.669291,5.669291 0 1 0 289.13386,1016.9291 Z" />
</svg>
